<svg viewBox="0 0 192 192" fill="none" xmlns="http://www.w3.org/2000/svg">
  <!-- Background -->
  <rect width="192" height="192" fill="#0f0f1e" rx="45" />
  
  <!-- Gradient background circle -->
  <circle cx="96" cy="96" r="85" fill="#10b981" opacity="0.1" />
  
  <!-- Left leaf -->
  <ellipse cx="72" cy="80" rx="20" ry="32" fill="#10b981" transform="rotate(-35 72 80)" />
  <path d="M 72 55 Q 82 70 72 105" stroke="#ffffff" strokeWidth="2.2" fill="none" strokeLinecap="round" />
  <path d="M 67 60 Q 76 73 70 100" stroke="#ffffff" strokeWidth="1.3" fill="none" strokeLinecap="round" opacity="0.7" />
  
  <!-- Top right leaf -->
  <ellipse cx="112" cy="60" rx="18" ry="30" fill="#10b981" transform="rotate(25 112 60)" />
  <path d="M 112 35 Q 118 50 112 85" stroke="#ffffff" strokeWidth="2.2" fill="none" strokeLinecap="round" />
  <path d="M 109 43 Q 116 55 110 80" stroke="#ffffff" strokeWidth="1.3" fill="none" strokeLinecap="round" opacity="0.7" />
  
  <!-- Center bottom leaf -->
  <ellipse cx="96" cy="105" rx="16" ry="28" fill="#10b981" />
  <path d="M 96 80 L 96 130" stroke="#ffffff" strokeWidth="2.2" fill="none" strokeLinecap="round" />
  <path d="M 93 85 L 94 127" stroke="#ffffff" strokeWidth="1.3" fill="none" strokeLinecap="round" opacity="0.7" />
  <path d="M 99 85 L 98 127" stroke="#ffffff" strokeWidth="1.3" fill="none" strokeLinecap="round" opacity="0.7" />
</svg>
